<svg width="96" height="96" viewBox="0 0 96 96" fill="none" xmlns="http://www.w3.org/2000/svg">
  <defs>
    <linearGradient id="shieldGrad" x1="48" y1="8" x2="48" y2="88" gradientUnits="userSpaceOnUse">
      <stop stop-color="#7DD3FC"/>
      <stop offset="1" stop-color="#1D4ED8"/>
    </linearGradient>
    <linearGradient id="innerGrad" x1="48" y1="20" x2="48" y2="82" gradientUnits="userSpaceOnUse">
      <stop stop-color="#E0F2FE"/>
      <stop offset="1" stop-color="#93C5FD"/>
    </linearGradient>
  </defs>

  <path d="M48 6C35 13 22 14 14 14V41C14 63 29 79 48 90C67 79 82 63 82 41V14C74 14 61 13 48 6Z" fill="url(#shieldGrad)"/>
  <path d="M48 15C37 21 27 22 20 22V41C20 58 32 71 48 80C64 71 76 58 76 41V22C69 22 59 21 48 15Z" fill="#0B122A" fill-opacity="0.55"/>

  <path d="M35 46H64C66 46 68 48 68 50V58H28V52C28 48.7 30.7 46 34 46H35Z" fill="url(#innerGrad)"/>
  <path d="M42 40H56C58.5 40 60.8 41.3 62.1 43.3L64 46H36L38 43.3C39.3 41.3 41.5 40 44 40H42Z" fill="white"/>
  <rect x="29" y="58" width="40" height="8" rx="2" fill="#E2E8F0"/>
  <circle cx="38" cy="67" r="4" fill="#1E293B"/>
  <circle cx="58" cy="67" r="4" fill="#1E293B"/>

  <rect x="37" y="49" width="8" height="8" rx="1" fill="#2563EB"/>
  <rect x="40" y="46" width="2" height="14" fill="#2563EB"/>
  <rect x="34" y="52" width="14" height="2" fill="#2563EB"/>

  <path d="M48 12C56 12 62.7 15.4 66 20" stroke="#7DD3FC" stroke-width="4" stroke-linecap="round"/>
  <path d="M48 18C53.5 18 58 20.2 60.5 23.5" stroke="#7DD3FC" stroke-width="4" stroke-linecap="round"/>
  <path d="M48 24C51 24 53.5 25.2 55 27" stroke="#7DD3FC" stroke-width="4" stroke-linecap="round"/>
  <circle cx="48" cy="31" r="3" fill="#F8FAFC"/>
</svg>
